:FULLY-SPECIFIED
:FORCE-ALL-JOINTS-BE-3DOF
:DEGREES
1733
root -5.243 15.5666 27.06 905.146 -1.35781 186.248
lfemur -45.1253 10.0174 -17.1304
ltibia 56.7125 0 0
lfoot -17.0548 26.9924 0
ltoes -12.2331 0 0
rfemur -22.8947 -14.8842 16.0025
rtibia 63.2519 0 0
rfoot -9.82574 -25.2227 0
rtoes 11.4323 0 0
lowerback 16.1378 3.35753 -7.07622
upperback -0.586477 3.27601 1.47329
thorax -10.2395 1.99611 4.73565
lowerneck 5.18056 -16.0119 -17.7108
upperneck -3.52726 -22.722 24.6166
head 3.06867 -11.6577 9.23261
lclavicle 9.89729e-014 3.57256e-014 0
lhumerus -54.6034 -36.868 116.2
lradius 98.81 0 0
lwrist 45.4246 0 0
lhand -1.93414 35.8651 0
lfingers 7.12502 0 0
lthumb 23.7394 64.4538 0
rclavicle 9.89729e-014 3.57256e-014 0
rhumerus 20.4529 37.9231 -36.3193
rradius 123.113 0 0
rwrist -15.2897 0 0
rhand 6.78891 -28.4148 0
rfingers 7.12502 0 0
rthumb 32.0764 -55.6345 0
1734
root -5.17534 15.5688 27.1119 904.893 1.3526 186.068
lfemur -44.1596 8.09557 -15.8508
ltibia 56.3789 0 0
lfoot -16.919 25.5881 0
ltoes -14.3595 0 0
rfemur -23.4937 -15.2591 16.3856
rtibia 62.3013 0 0
rfoot -10.257 -25.1563 0
rtoes 10.8785 0 0
lowerback 16.3045 3.6278 -7.32024
upperback -0.496656 3.56446 1.17699
thorax -10.2706 2.13975 4.46491
lowerneck 5.05447 -15.9736 -17.7789
upperneck -3.40666 -22.6334 24.6516
head 3.11247 -11.5821 9.25379
lclavicle 1.02846e-013 3.55673e-014 0
lhumerus -55.8521 -34.8106 115.272
lradius 99.435 0 0
lwrist 45.4972 0 0
lhand -1.89221 34.8286 0
lfingers 7.12502 0 0
lthumb 23.7797 63.4129 0
rclavicle 1.02846e-013 3.55673e-014 0
rhumerus 15.3093 38.076 -39.0335
rradius 122.71 0 0
rwrist -14.6387 0 0
rhand 6.34311 -28.6912 0
rfingers 7.12502 0 0
rthumb 31.6523 -56.0004 0
1735
root -5.10767 15.571 27.1637 904.662 4.06296 185.92
lfemur -43.1791 6.19117 -14.5714
ltibia 56.0809 0 0
lfoot -16.7846 24.1833 0
ltoes -16.4967 0 0
rfemur -24.1254 -15.6477 16.7847
rtibia 61.3631 0 0
rfoot -10.6931 -25.0811 0
rtoes 10.2983 0 0
lowerback 16.4707 3.89485 -7.55535
upperback -0.406498 3.85042 0.884905
thorax -10.299 2.28162 4.19494
lowerneck 4.92299 -15.926 -17.8355
upperneck -3.28131 -22.531 24.6711
head 3.15389 -11.4996 9.26965
lclavicle 1.06475e-013 3.53269e-014 0
lhumerus -57.0688 -32.768 114.32
lradius 100.055 0 0
lwrist 45.521 0 0
lhand -1.87166 33.7972 0
lfingers 7.12502 0 0
lthumb 23.7994 62.379 0
rclavicle 1.06475e-013 3.53269e-014 0
rhumerus 10.2514 38.179 -41.7162
rradius 122.209 0 0
rwrist -13.9781 0 0
rhand 5.88284 -28.9704 0
rfingers 7.12502 0 0
rthumb 31.2141 -56.3692 0
1736
root -5.04 15.5731 27.2155 904.466 6.76828 185.81
lfemur -42.1981 4.33249 -13.306
ltibia 55.8257 0 0
lfoot -16.6493 22.7969 0
ltoes -18.6121 0 0
rfemur -24.7747 -16.0513 17.1957
rtibia 60.4465 0 0
rfoot -11.1279 -24.999 0
rtoes 9.69701 0 0
lowerback 16.6328 4.1565 -7.77618
upperback -0.317867 4.13236 0.600551
thorax -10.3247 2.42085 3.92711
lowerneck 4.78518 -15.8673 -17.878
upperneck -3.15056 -22.4129 24.6728
head 3.1927 -11.4094 9.27912
lclavicle 1.09799e-013 3.50089e-014 0
lhumerus -58.2494 -30.7625 113.361
lradius 100.664 0 0
lwrist 45.4915 0 0
lhand -1.87349 32.7839 0
lfingers 7.12502 0 0
lthumb 23.7976 61.3652 0
rclavicle 1.09799e-013 3.50089e-014 0
rhumerus 5.34543 38.2241 -44.3337
rradius 121.598 0 0
rwrist -13.3096 0 0
rhand 5.40678 -29.2486 0
rfingers 7.12502 0 0
rthumb 30.7606 -56.7368 0
